<?xml version="1.0" standalone="no"?><!DOCTYPE svg PUBLIC "-//W3C//DTD SVG 1.1//EN" "http://www.w3.org/Graphics/SVG/1.1/DTD/svg11.dtd"><svg t="1573958959038" class="icon" viewBox="0 0 1024 1024" version="1.1" xmlns="http://www.w3.org/2000/svg" p-id="2641" width="64" height="64" xmlns:xlink="http://www.w3.org/1999/xlink"><defs><style type="text/css"></style></defs><path d="M391.168 764.928c-17.92 0-31.744-14.336-31.744-31.744V496.64c0-17.92 14.336-31.744 31.744-31.744s31.744 14.336 31.744 31.744v236.032c0 17.92-14.336 32.256-31.744 32.256z m134.144 0c-17.92 0-31.744-14.336-31.744-31.744V496.64c0-17.92 14.336-31.744 31.744-31.744 17.92 0 31.744 14.336 31.744 31.744v236.032c0 17.92-14.336 32.256-31.744 32.256z m134.144 0c-17.92 0-31.744-14.336-31.744-31.744V496.64c0-17.92 14.336-31.744 31.744-31.744 17.92 0 31.744 14.336 31.744 31.744v236.032c0 17.92-14.336 32.256-31.744 32.256zM158.72 291.328h719.872v64H158.72V291.328z" fill="#6f5c4a" p-id="2642"></path><path d="M758.784 344.576V824.32c0 35.328-28.672 64-64 64H343.04c-35.328 0-64-28.672-64-64V475.648h-0.512V344.576H215.04v480.256c0 70.656 57.344 128 128 128h351.744c70.656 0 128-57.344 128-128V344.576h-64z m-343.552-179.2c3.584-16.896 18.432-29.696 36.352-29.696h134.144c17.92 0 33.28 12.8 36.352 29.696h64.512c-4.096-52.224-47.616-93.696-101.376-93.696h-133.12c-53.248 0-97.28 41.472-101.376 93.696h64.512z" fill="#6f5c4a" p-id="2643"></path><path d="M784.896 162.816H252.928c-70.656 0-128 57.344-128 128v35.84h64v-35.84c0-35.328 28.672-64 64-64h531.968c35.328 0 64 28.672 64 64v35.84h64v-35.84c0-70.656-57.344-128-128-128z" fill="#6f5c4a" p-id="2644"></path></svg>