<?xml version="1.0" encoding="utf-8"?>
<svg version="1.1" xmlns:xlink="http://www.w3.org/1999/xlink" width="45px" height="43px" xmlns="http://www.w3.org/2000/svg">
  <g transform="matrix(1 0 0 1 -3208 -1633 )">
    <path d="M 32.6953125 37.7435412728418  L 30.7481971153846 26.3364839319471  L 39.0234375 18.289224952741  L 27.6111778846154 16.6093257718967  L 22.5 6.25897920604915  L 17.3888221153846 16.6093257718967  L 5.9765625 18.289224952741  L 14.2518028846154 26.3364839319471  L 12.2776442307692 37.7435412728418  L 22.5 32.351606805293  L 32.6953125 37.7435412728418  Z M 43.4855769230769 15.4171392564587  C 44.4951923076923 15.5797101449275  45 15.9951690821256  45 16.6635160680529  C 45 17.0609115731989  44.765625 17.4944339424491  44.296875 17.9640831758034  L 34.4801682692308 27.5557655954631  L 36.8058894230769 41.1033396345306  C 36.8239182692308 41.2297836588952  36.8329326923077 41.4104179794161  36.8329326923077 41.6452425960933  C 36.8329326923077 42.5484141986977  36.4633413461539 43  35.7241586538462 43  C 35.3816105769231 43  35.0210336538462 42.8916194076875  34.6424278846154 42.6748582230624  L 22.5 36.2804032766226  L 10.3575721153846 42.6748582230624  C 9.9609375 42.8916194076875  9.60036057692308 43  9.27584134615384 43  C 8.89723557692308 43  8.61328125 42.8690401176223  8.42397836538462 42.607120352867  C 8.23467548076923 42.3452005881117  8.14002403846154 42.0245746691871  8.14002403846154 41.6452425960933  C 8.14002403846154 41.5368620037807  8.15805288461539 41.3562276832598  8.19411057692308 41.1033396345306  L 10.5198317307692 27.5557655954631  L 0.676081730769231 17.9640831758034  C 0.225360576923077 17.476370510397  0 17.0428481411468  0 16.6635160680529  C 0 15.9951690821256  0.504807692307692 15.5797101449275  1.51442307692308 15.4171392564587  L 15.0901442307692 13.4391934467549  L 21.1748798076923 1.11090107120353  C 21.5174278846154 0.370300357067841  21.9591346153846 0  22.5 0  C 23.0408653846154 0  23.4825721153846 0.370300357067841  23.8251201923077 1.11090107120353  L 29.9098557692308 13.4391934467549  L 43.4855769230769 15.4171392564587  Z " fill-rule="nonzero" fill="#888888" stroke="none" transform="matrix(1 0 0 1 3208 1633 )" />
  </g>
</svg>