<?xml version="1.0" encoding="utf-8"?>
<svg version="1.1" xmlns:xlink="http://www.w3.org/1999/xlink" width="50px" height="50px" xmlns="http://www.w3.org/2000/svg">
  <g transform="matrix(1 0 0 1 -2585 -1629 )">
    <path d="M 8.44884488448845 45.7755775577558  L 11.980198019802 45.7755775577558  L 14.983498349835 42.7722772277228  L 7.22772277227723 35.016501650165  L 4.22442244224422 38.019801980198  L 4.22442244224422 41.5511551155115  L 8.44884488448845 41.5511551155115  L 8.44884488448845 45.7755775577558  Z M 29.009900990099 15.7095709570957  C 29.1639163916392 15.5555555555556  29.2409240924092 15.3685368536854  29.2409240924092 15.1485148514852  C 29.2409240924092 14.6644664466447  28.998899889989 14.4224422442244  28.5148514851485 14.4224422442244  C 28.2948294829483 14.4224422442244  28.1078107810781 14.4994499449945  27.953795379538 14.6534653465347  L 10.0660066006601 32.5412541254125  C 9.91199119911991 32.6952695269527  9.83498349834984 32.8822882288229  9.83498349834984 33.1023102310231  C 9.83498349834984 33.5863586358636  10.0770077007701 33.8283828382838  10.5610561056106 33.8283828382838  C 10.7810781078108 33.8283828382838  10.968096809681 33.7513751375137  11.1221122112211 33.5973597359736  L 29.009900990099 15.7095709570957  Z M 0 36.2706270627063  L 27.4587458745875 8.81188118811881  L 41.1881188118812 22.5412541254125  L 13.7293729372937 50  L 0 50  L 0 36.2706270627063  Z M 48.7788778877888 8.97689768976898  C 49.5929592959296 9.83498349834984  50 10.8360836083608  50 11.980198019802  C 50 13.1463146314631  49.5929592959296 14.1364136413641  48.7788778877888 14.950495049505  L 43.3003300330033 20.4290429042904  L 29.5709570957096 6.6996699669967  L 35.049504950495 1.25412541254125  C 35.8415841584158 0.418041804180413  36.8316831683168 0  38.019801980198 0  C 39.1859185918592 0  40.1870187018702 0.418041804180413  41.023102310231 1.25412541254125  L 48.7788778877888 8.97689768976898  Z " fill-rule="nonzero" fill="#9c9c9c" stroke="none" transform="matrix(1 0 0 1 2585 1629 )" />
  </g>
</svg>