<?xml version="1.0" encoding="utf-8"?>
<svg version="1.1" xmlns:xlink="http://www.w3.org/1999/xlink" width="50px" height="38px" xmlns="http://www.w3.org/2000/svg">
  <g transform="matrix(1 0 0 1 -1766 -1787 )">
    <path d="M 43.3189655172414 14.0340909090909  C 44.3247126436782 13.0265151515151  44.8275862068966 11.8030303030303  44.8275862068966 10.3636363636364  C 44.8275862068966 8.92424242424242  44.3247126436782 7.70075757575758  43.3189655172414 6.69318181818182  C 42.3132183908046 5.68560606060606  41.0919540229885 5.18181818181818  39.6551724137931 5.18181818181818  L 38 5.18181818181818  L 38 15.5454545454545  L 39.6551724137931 15.5454545454545  C 41.0919540229885 15.5454545454545  42.3132183908046 15.0416666666667  43.3189655172414 14.0340909090909  Z M 2.02047413793103 35.9758522727273  C 0.673491379310345 34.6264204545455  0 32.9981060606061  0 31  L 48.2758620689655 31  C 48.2758620689655 32.9981060606061  47.6023706896552 34.6264204545455  46.2553879310345 35.9758522727273  C 44.9084051724138 37.3252840909091  43.2830459770115 38  41.3793103448276 38  L 6.89655172413793 38  C 4.99281609195402 38  3.36745689655172 37.3252840909091  2.02047413793103 35.9758522727273  Z M 46.9692887931034 3.03622159090909  C 48.9897629310345 5.06036931818182  50 7.50284090909091  50 10.3636363636364  C 50 13.2244318181818  48.9897629310345 15.6669034090909  46.9692887931034 17.6910511363636  C 44.9488146551724 19.7151988636364  42.510775862069 20.7272727272727  39.6551724137931 20.7272727272727  L 37.9310344827586 20.7272727272727  L 37.9310344827586 21.5909090909091  C 37.9310344827586 23.2462121212121  37.3383620689655 24.6676136363636  36.1530172413793 25.8551136363636  C 34.9676724137931 27.0426136363636  33.5488505747126 27.6363636363636  31.8965517241379 27  L 12.9310344827586 27  C 11.2787356321839 27.6363636363636  9.85991379310345 27.0426136363636  8.67456896551724 25.8551136363636  C 7.48922413793103 24.6676136363636  6.89655172413793 23.2462121212121  7 21.5909090909091  L 7 1.72727272727273  C 6.89655172413793 1.25946969696969  7.06716954022989 0.854640151515146  7.40840517241379 0.512784090909093  C 7.7496408045977 0.170928030303027  8.15373563218391 0  8.62068965517241 0  L 39.6551724137931 0  C 42.510775862069 0  44.9488146551724 1.01207386363636  46.9692887931034 3.03622159090909  Z " fill-rule="nonzero" fill="#8d8d8d" stroke="none" transform="matrix(1 0 0 1 1766 1787 )" />
  </g>
</svg>