<?xml version="1.0" encoding="utf-8"?>
<svg version="1.1" xmlns:xlink="http://www.w3.org/1999/xlink" width="39px" height="39px" xmlns="http://www.w3.org/2000/svg">
  <g transform="matrix(1 0 0 1 -2276 -954 )">
    <path d="M 30.392578125 22.267578125  C 30.7141927083333 21.9459635416667  30.875 21.5651041666667  30.875 21.125  L 30.875 17.875  C 30.875 17.4348958333333  30.7141927083333 17.0540364583333  30.392578125 16.732421875  C 30.0709635416667 16.4108072916667  29.6901041666667 16.25  29.25 17  L 9.75 17  C 9.30989583333333 16.25  8.92903645833333 16.4108072916667  8.607421875 16.732421875  C 8.28580729166667 17.0540364583333  8.125 17.4348958333333  8.125 17.875  L 8.125 21.125  C 8.125 21.5651041666667  8.28580729166667 21.9459635416667  8.607421875 22.267578125  C 8.92903645833333 22.5891927083333  9.30989583333333 22.75  9.75 22  L 29.25 22  C 29.6901041666667 22.75  30.0709635416667 22.5891927083333  30.392578125 22.267578125  Z M 36.384765625 9.7119140625  C 38.1282552083333 12.6995442708333  39 15.9622395833333  39 19.5  C 39 23.0377604166667  38.1282552083333 26.3004557291667  36.384765625 29.2880859375  C 34.6412760416667 32.2757161458333  32.2757161458333 34.6412760416667  29.2880859375 36.384765625  C 26.3004557291667 38.1282552083333  23.0377604166667 39  19.5 39  C 15.9622395833333 39  12.6995442708333 38.1282552083333  9.7119140625 36.384765625  C 6.72428385416667 34.6412760416667  4.35872395833333 32.2757161458333  2.615234375 29.2880859375  C 0.871744791666667 26.3004557291667  0 23.0377604166667  0 19.5  C 0 15.9622395833333  0.871744791666667 12.6995442708333  2.615234375 9.7119140625  C 4.35872395833333 6.72428385416667  6.72428385416667 4.35872395833333  9.7119140625 2.615234375  C 12.6995442708333 0.871744791666663  15.9622395833333 0  19.5 0  C 23.0377604166667 0  26.3004557291667 0.871744791666663  29.2880859375 2.615234375  C 32.2757161458333 4.35872395833333  34.6412760416667 6.72428385416667  36.384765625 9.7119140625  Z " fill-rule="nonzero" fill="#909090" stroke="none" transform="matrix(1 0 0 1 2276 954 )" />
  </g>
</svg>