<?xml version="1.0" encoding="utf-8"?>
<svg version="1.1" xmlns:xlink="http://www.w3.org/1999/xlink" width="41px" height="32px" xmlns="http://www.w3.org/2000/svg">
  <g transform="matrix(1 0 0 1 -2381 -695 )">
    <path d="M 38.7120535714286 12.2954545454545  C 39.5814732142857 11.7045454545455  40.3441220238095 11.0454545454545  41 10.3181818181818  L 41 28.3636363636364  C 41 29.3636363636364  40.6415550595238 30.219696969697  39.9246651785714 30.9318181818182  C 39.2077752976191 31.6439393939394  38.3459821428572 32  37.3392857142857 32  L 3.66071428571429 32  C 2.65401785714286 32  1.79222470238095 31.6439393939394  1.07533482142857 30.9318181818182  C 0.358444940476191 30.219696969697  0 29.3636363636364  0 28.3636363636364  L 0 10.3181818181818  C 0.671130952380953 11.0606060606061  1.44140625 11.719696969697  2.31082589285714 12.2954545454545  C 7.83240327380952 16.0227272727273  11.6227678571429 18.6363636363636  13.6819196428571 20.1363636363636  C 14.5513392857143 20.7727272727273  15.2567894345238 21.2689393939394  15.7982700892857 21.625  C 16.3397507440476 21.9810606060606  17.0604538690476 22.344696969697  17.9603794642857 22.7159090909091  C 18.8603050595238 23.0871212121212  19.69921875 23.2727272727273  20.4771205357143 23.2727272727273  L 20.5 23.2727272727273  L 20.5228794642857 23.2727272727273  C 21.30078125 23.2727272727273  22.1396949404762 23.0871212121212  23.0396205357143 22.7159090909091  C 23.9395461309524 22.344696969697  24.6602492559524 21.9810606060606  25.2017299107143 21.625  C 25.7432105654762 21.2689393939394  26.4486607142857 20.7727272727273  27.3180803571429 20.1363636363636  C 29.9110863095238 18.2727272727273  33.7090773809524 15.6590909090909  38.7120535714286 12.2954545454545  Z M 39.9132254464286 1.06818181818182  C 40.6377418154762 1.78030303030303  41 2.63636363636364  41 3.63636363636364  C 41 4.83333333333333  40.6263020833333 5.97727272727273  39.87890625 7.06818181818182  C 39.1315104166667 8.15909090909091  38.2010788690476 9.09090909090909  37.0876116071429 9.86363636363636  C 31.3524925595238 13.8181818181818  27.7832961309524 16.280303030303  26.3800223214286 17.25  C 26.2274925595238 17.3560606060606  25.9033668154762 17.5871212121212  25.4076450892857 17.9431818181818  C 24.9119233630952 18.2992424242424  24.5000930059524 18.5871212121212  24.1721540178571 18.8068181818182  C 23.8442150297619 19.0265151515151  23.4476376488095 19.2727272727273  22.982421875 19.5454545454545  C 22.5172061011905 19.8181818181818  22.0786830357143 20.0227272727273  21.6668526785714 20.1590909090909  C 21.2550223214286 20.2954545454545  20.8736979166667 20.3636363636364  20.5228794642857 20.3636363636364  L 20.5 20.3636363636364  L 20.4771205357143 20.3636363636364  C 20.1263020833333 20.3636363636364  19.7449776785714 20.2954545454545  19.3331473214286 20.1590909090909  C 18.9213169642857 20.0227272727273  18.4827938988095 19.8181818181818  18.017578125 19.5454545454545  C 17.5523623511905 19.2727272727273  17.1557849702381 19.0265151515151  16.8278459821429 18.8068181818182  C 16.4999069940476 18.5871212121212  16.0880766369048 18.2992424242424  15.5923549107143 17.9431818181818  C 15.0966331845238 17.5871212121212  14.7725074404762 17.3560606060606  14.6199776785714 17.25  C 13.2319568452381 16.280303030303  11.2338169642857 14.8977272727273  8.62555803571428 13.1022727272727  C 6.01729910714286 11.3068181818182  4.45386904761905 10.2272727272727  3.93526785714286 9.86363636363636  C 2.98958333333333 9.22727272727272  2.09728422619048 8.35227272727273  1.25837053571429 7.23863636363636  C 0.419456845238095 6.125  0 5.09090909090909  0 4.13636363636364  C 0 2.95454545454545  0.316499255952381 1.96969696969697  0.949497767857143 1.18181818181818  C 1.58249627976191 0.393939393939391  2.48623511904762 0  3.66071428571429 0  L 37.3392857142857 0  C 38.3307291666667 0  39.188709077381 0.356060606060602  39.9132254464286 1.06818181818182  Z " fill-rule="nonzero" fill="#753b00" stroke="none" transform="matrix(1 0 0 1 2381 695 )" />
  </g>
</svg>