<?xml version="1.0" encoding="utf-8"?>
<svg version="1.1" xmlns:xlink="http://www.w3.org/1999/xlink" width="50px" height="46px" xmlns="http://www.w3.org/2000/svg">
  <g transform="matrix(1 0 0 1 -2130 -1534 )">
    <path d="M 41.6766826923077 28.75  C 42.0973557692308 28.9296875  42.3076923076923 29.2191840277778  42.3076923076923 29.6184895833333  L 42.3076923076923 37.375  C 42.3076923076923 39.7508680555556  41.4613381410256 41.7823350694445  39.7686298076923 43.4694010416667  C 38.075921474359 45.1564670138889  36.0376602564103 46  33.6538461538462 46  L 8.65384615384615 46  C 6.27003205128205 46  4.23177083333333 45.1564670138889  2.5390625 43.4694010416667  C 0.846354166666667 41.7823350694445  0 39.7508680555556  0 37.375  L 0 12.4583333333333  C 0 10.0824652777778  0.846354166666667 8.05099826388889  2.5390625 6.36393229166667  C 4.23177083333333 4.67686631944444  6.27003205128205 3.83333333333333  8.65384615384615 3.83333333333333  L 16.3161057692308 3.83333333333333  C 16.5765224358974 3.83333333333333  16.8018830128205 3.92816840277777  16.9921875 4.11783854166667  C 17.1824919871795 4.30750868055555  17.2776442307692 4.53211805555555  17.2776442307692 4.79166666666667  C 17.2776442307692 5.33072916666667  17.0172275641026 5.65017361111111  16.4963942307692 5.75  C 14.9539262820513 6.26909722222222  13.6217948717949 6.86805555555555  12.5 7.546875  C 12.2996794871795 7.62673611111111  12.1394230769231 7.66666666666667  12.0192307692308 7.66666666666667  L 8.65384615384615 7.66666666666667  C 7.33173076923077 7.66666666666667  6.19991987179487 8.13585069444444  5.25841346153846 9.07421875  C 4.31690705128205 10.0125868055556  3.84615384615385 11.140625  4 12.4583333333333  L 4 37.375  C 3.84615384615385 38.6927083333333  4.31690705128205 39.8207465277778  5.25841346153846 40.7591145833333  C 6.19991987179487 41.6974826388889  7.33173076923077 42.1666666666667  8.65384615384615 42  L 33.6538461538462 42  C 34.9759615384615 42.1666666666667  36.1077724358974 41.6974826388889  37.0492788461538 40.7591145833333  C 37.9907852564103 39.8207465277778  38.4615384615385 38.6927083333333  38.4615384615385 37.375  L 38.4615384615385 30.9661458333333  C 38.4615384615385 30.5868055555556  38.6418269230769 30.2973090277778  39.0024038461538 30.09765625  C 39.5633012820513 29.8381076388889  40.1041666666667 29.46875  40.625 28.9895833333333  C 40.9455128205128 28.6701388888889  41.2960737179487 28.5902777777778  41.6766826923077 28.75  Z M 50 13.4166666666667  C 50 13.9357638888889  49.8096955128205 14.3849826388889  49.4290865384615 14.7643229166667  L 37.890625 26.2643229166667  C 37.5300480769231 26.6436631944444  37.0793269230769 26.8333333333333  36.5384615384615 26.8333333333333  C 36.2980769230769 26.8333333333333  36.0476762820513 26.7834201388889  35.7872596153846 26.68359375  C 35.0060096153846 26.3441840277778  34.6153846153846 25.7552083333333  34.6153846153846 24.9166666666667  L 34.6153846153846 19.1666666666667  L 29.8076923076923 19.1666666666667  C 23.3373397435897 19.1666666666667  18.9503205128205 20.4743923611111  16.6466346153846 23.08984375  C 14.2628205128205 25.8250868055556  13.5216346153846 30.546875  14.4230769230769 37.2552083333333  C 14.4831730769231 37.7144097222222  14.2828525641026 38.0538194444444  13.8221153846154 38.2734375  C 13.661858974359 38.3133680555556  13.5416666666667 38.3333333333333  13.4615384615385 38.3333333333333  C 13.1410256410256 38.3333333333333  12.880608974359 38.2035590277778  12.6802884615385 37.9440104166667  C 12.479967948718 37.6644965277778  12.2696314102564 37.3550347222222  12.0492788461538 37.015625  C 11.8289262820513 36.6762152777778  11.4332932692308 35.9924045138889  10.8623798076923 34.9641927083333  C 10.2914663461538 33.9359809027778  9.79567307692308 32.9427083333333  9.375 31.984375  C 8.95432692307692 31.0260416666667  8.56870993589744 29.8880208333333  8.21814903846154 28.5703125  C 7.86758814102564 27.2526041666667  7.69230769230769 26.0347222222222  7.69230769230769 24.9166666666667  C 7.69230769230769 23.9383680555556  7.72736378205128 23.0299479166667  7.79747596153846 22.19140625  C 7.86758814102564 21.3528645833333  8.0078125 20.4544270833333  8.21814903846154 19.49609375  C 8.42848557692308 18.5377604166667  8.7089342948718 17.6592881944444  9.05949519230769 16.8606770833333  C 9.41005608974359 16.0620659722222  9.8808092948718 15.2484809027778  10.4717548076923 14.419921875  C 11.0627003205128 13.5913628472222  11.7487980769231 12.8526475694444  12.5300480769231 12.2037760416667  C 13.3112980769231 11.5549045138889  14.2578125 10.9409722222222  15.3695913461538 10.3619791666667  C 16.4813701923077 9.78298611111111  17.7283653846154 9.298828125  19.1105769230769 8.90950520833334  C 20.4927884615385 8.52018229166666  22.0903445512821 8.21571180555555  23.9032451923077 7.99609375  C 25.7161458333333 7.77647569444444  27.6842948717949 7.66666666666667  29.8076923076923 7.66666666666667  L 34.6153846153846 7.66666666666667  L 34.6153846153846 1.91666666666666  C 34.6153846153846 1.078125  35.0060096153846 0.489149305555552  35.7872596153846 0.149739583333335  C 36.0476762820513 0.0499131944444484  36.2980769230769 0  36.5384615384615 0  C 37.0592948717949 0  37.510016025641 0.189670138888892  37.890625 0.569010416666665  L 49.4290865384615 12.0690104166667  C 49.8096955128205 12.4483506944444  50 12.8975694444444  50 13.4166666666667  Z " fill-rule="nonzero" fill="#c54600" stroke="none" transform="matrix(1 0 0 1 2130 1534 )" />
  </g>
</svg>