<?xml version="1.0" encoding="utf-8"?>
<svg version="1.1" xmlns:xlink="http://www.w3.org/1999/xlink" width="50px" height="38px" xmlns="http://www.w3.org/2000/svg">
  <g transform="matrix(1 0 0 1 -1737 -1412 )">
    <path d="M 24.0966796875 27.4485677083333  C 24.6988932291667 26.7476128472222  25 25.8693576388889  25 24.8138020833333  C 25 23.7582465277778  24.9267578125 22.7892795138889  24.7802734375 21.9069010416667  C 24.6337890625 21.0245225694444  24.3937174479167 20.1751302083333  24.06005859375 19.3587239583333  C 23.7263997395833 18.5423177083333  23.2340494791667 17.8990885416667  22.5830078125 17.4290364583333  C 21.9319661458333 16.958984375  21.142578125 16.7239583333333  20.21484375 16.7239583333333  C 20.1171875 16.7899305555556  19.873046875 16.9383680555556  19.482421875 17.1692708333333  C 19.091796875 17.4001736111111  18.78662109375 17.5774739583333  18.56689453125 17.701171875  C 18.34716796875 17.8248697916667  18.0582682291667 17.9691840277778  17.7001953125 18.1341145833333  C 17.3421223958333 18.2990451388889  16.9921875 18.4186197916667  16.650390625 18.4928385416667  C 16.30859375 18.5670572916667  15.966796875 18.6041666666667  15.625 18.6041666666667  C 15.283203125 18.6041666666667  14.94140625 18.5670572916667  14.599609375 18.4928385416667  C 14.2578125 18.4186197916667  13.9078776041667 18.2990451388889  13.5498046875 18.1341145833333  C 13.1917317708333 17.9691840277778  12.90283203125 17.8248697916667  12.68310546875 17.701171875  C 12.46337890625 17.5774739583333  12.158203125 17.4001736111111  11.767578125 17.1692708333333  C 11.376953125 16.9383680555556  11.1328125 16.7899305555556  11.03515625 16.7239583333333  C 10.107421875 16.7239583333333  9.31803385416667 16.958984375  8.6669921875 17.4290364583333  C 8.01595052083333 17.8990885416667  7.52360026041667 18.5423177083333  7.18994140625 19.3587239583333  C 6.85628255208333 20.1751302083333  6.6162109375 21.0245225694444  6.4697265625 21.9069010416667  C 6.3232421875 22.7892795138889  6.25 23.7582465277778  6.25 24.8138020833333  C 6.25 25.8693576388889  6.55110677083333 26.7476128472222  7.1533203125 27.4485677083333  C 7.75553385416667 28.1495225694444  8.49609375 28.5  9.375 28  L 21.875 28  C 22.75390625 28.5  23.4944661458333 28.1495225694444  24.0966796875 27.4485677083333  Z M 19.54345703125 15.919921875  C 20.6258138020833 14.8231336805556  21.1669921875 13.4995659722222  21.1669921875 11.94921875  C 21.1669921875 10.3988715277778  20.6258138020833 9.07530381944444  19.54345703125 7.978515625  C 18.4611002604167 6.88172743055555  17.1549479166667 6.33333333333333  15.625 6.33333333333333  C 14.0950520833333 6.33333333333333  12.7888997395833 6.88172743055555  11.70654296875 7.978515625  C 10.6241861979167 9.07530381944444  10.0830078125 10.3988715277778  10.0830078125 11.94921875  C 10.0830078125 13.4995659722222  10.6241861979167 14.8231336805556  11.70654296875 15.919921875  C 12.7888997395833 17.0167100694444  14.0950520833333 17.5651041666667  15.625 17.5651041666667  C 17.1549479166667 17.5651041666667  18.4611002604167 17.0167100694444  19.54345703125 15.919921875  Z M 43.5302734375 25.1106770833333  C 43.6767578125 24.9622395833333  43.75 24.7725694444444  43.75 24.5416666666667  L 43.75 22.9583333333333  C 43.75 22.7274305555556  43.6767578125 22.5377604166667  43.5302734375 22.3893229166667  C 43.3837890625 22.2408854166667  43.1966145833333 22.1666666666667  42.96875 22  L 28.90625 22  C 28.6783854166667 22.1666666666667  28.4912109375 22.2408854166667  28.3447265625 22.3893229166667  C 28.1982421875 22.5377604166667  28.125 22.7274305555556  28.125 22.9583333333333  L 28.125 24.5416666666667  C 28.125 24.7725694444444  28.1982421875 24.9622395833333  28.3447265625 25.1106770833333  C 28.4912109375 25.2591145833333  28.6783854166667 25.3333333333333  28.90625 25  L 42.96875 25  C 43.1966145833333 25.3333333333333  43.3837890625 25.2591145833333  43.5302734375 25.1106770833333  Z M 43.49365234375 18.740234375  C 43.66455078125 18.5670572916667  43.75 18.3567708333333  43.75 18.109375  L 43.75 16.7239583333333  C 43.75 16.4765625  43.66455078125 16.2662760416667  43.49365234375 16.0930989583333  C 43.32275390625 15.919921875  43.115234375 15.8333333333333  42.87109375 16  L 29.00390625 16  C 28.759765625 15.8333333333333  28.55224609375 15.919921875  28.38134765625 16.0930989583333  C 28.21044921875 16.2662760416667  28.125 16.4765625  28.125 16.7239583333333  L 28.125 18.109375  C 28.125 18.3567708333333  28.21044921875 18.5670572916667  28.38134765625 18.740234375  C 28.55224609375 18.9134114583333  28.759765625 19  29.00390625 19  L 42.87109375 19  C 43.115234375 19  43.32275390625 18.9134114583333  43.49365234375 18.740234375  Z M 43.5302734375 12.4440104166667  C 43.6767578125 12.2955729166667  43.75 12.1059027777778  43.75 11.875  L 43.75 10.2916666666667  C 43.75 10.0607638888889  43.6767578125 9.87109375  43.5302734375 9.72265625  C 43.3837890625 9.57421875  43.1966145833333 9.5  42.96875 10  L 28.90625 10  C 28.6783854166667 9.5  28.4912109375 9.57421875  28.3447265625 9.72265625  C 28.1982421875 9.87109375  28.125 10.0607638888889  28.125 10.2916666666667  L 28.125 11.875  C 28.125 12.1059027777778  28.1982421875 12.2955729166667  28.3447265625 12.4440104166667  C 28.4912109375 12.5924479166667  28.6783854166667 12.6666666666667  28.90625 13  L 42.96875 13  C 43.1966145833333 12.6666666666667  43.3837890625 12.5924479166667  43.5302734375 12.4440104166667  Z M 48.8525390625 1.16276041666667  C 49.6175130208333 1.93793402777778  50 2.86979166666667  50 3.95833333333333  L 50 34.0416666666667  C 50 35.1302083333333  49.6175130208333 36.0620659722222  48.8525390625 36.8372395833333  C 48.0875651041667 37.6124131944444  47.16796875 38  46.09375 38  L 37.5 38  L 37.5 35.625  C 37.5 35.3940972222222  37.4267578125 35.2044270833333  37.2802734375 35.0559895833333  C 37.1337890625 34.9075520833333  36.9466145833333 34.8333333333333  36.71875 34.8333333333333  L 35.15625 34.8333333333333  C 34.9283854166667 34.8333333333333  34.7412109375 34.9075520833333  34.5947265625 35.0559895833333  C 34.4482421875 35.2044270833333  34.375 35.3940972222222  34.375 35.625  L 34.375 38  L 15.625 38  L 15.625 35.625  C 15.625 35.3940972222222  15.5517578125 35.2044270833333  15.4052734375 35.0559895833333  C 15.2587890625 34.9075520833333  15.0716145833333 34.8333333333333  14.84375 34.8333333333333  L 13.28125 34.8333333333333  C 13.0533854166667 34.8333333333333  12.8662109375 34.9075520833333  12.7197265625 35.0559895833333  C 12.5732421875 35.2044270833333  12.5 35.3940972222222  12.5 35.625  L 12.5 38  L 3.90625 38  C 2.83203125 38  1.91243489583333 37.6124131944444  1.1474609375 36.8372395833333  C 0.382486979166667 36.0620659722222  0 35.1302083333333  0 34.0416666666667  L 0 3.95833333333333  C 0 2.86979166666667  0.382486979166667 1.93793402777778  1.1474609375 1.16276041666667  C 1.91243489583333 0.387586805555552  2.83203125 0  3.90625 0  L 46.09375 0  C 47.16796875 0  48.0875651041667 0.387586805555552  48.8525390625 1.16276041666667  Z " fill-rule="nonzero" fill="#bf9356" stroke="none" transform="matrix(1 0 0 1 1737 1412 )" />
  </g>
</svg>