<?xml version="1.0" encoding="utf-8"?>
<svg version="1.1" xmlns:xlink="http://www.w3.org/1999/xlink" width="70px" height="59px" xmlns="http://www.w3.org/2000/svg">
  <g transform="matrix(1 0 0 1 -1611 -1724 )">
    <path d="M 25.3245192307692 49.8650568181818  C 26.3902243589744 50.9266098484848  26.9230769230769 52.1837121212121  26.9230769230769 53.6363636363636  C 26.9230769230769 55.0890151515152  26.3902243589744 56.3461174242424  25.3245192307692 57.4076704545455  C 24.2588141025641 58.4692234848485  22.9967948717949 59  21.5384615384615 59  C 20.0801282051282 59  18.818108974359 58.4692234848485  17.7524038461538 57.4076704545455  C 16.6866987179487 56.3461174242424  16.1538461538462 55.0890151515152  16.1538461538462 53.6363636363636  C 16.1538461538462 52.1837121212121  16.6866987179487 50.9266098484848  17.7524038461538 49.8650568181818  C 18.818108974359 48.8035037878788  20.0801282051282 48.2727272727273  21.5384615384615 48.2727272727273  C 22.9967948717949 48.2727272727273  24.2588141025641 48.8035037878788  25.3245192307692 49.8650568181818  Z M 63.0168269230769 49.8650568181818  C 64.082532051282 50.9266098484848  64.6153846153846 52.1837121212121  64.6153846153846 53.6363636363636  C 64.6153846153846 55.0890151515152  64.082532051282 56.3461174242424  63.0168269230769 57.4076704545455  C 61.9511217948718 58.4692234848485  60.6891025641026 59  59.2307692307692 59  C 57.7724358974359 59  56.5104166666667 58.4692234848485  55.4447115384615 57.4076704545455  C 54.3790064102564 56.3461174242424  53.8461538461538 55.0890151515152  53.8461538461538 53.6363636363636  C 53.8461538461538 52.1837121212121  54.3790064102564 50.9266098484848  55.4447115384615 49.8650568181818  C 56.5104166666667 48.8035037878788  57.7724358974359 48.2727272727273  59.2307692307692 48.2727272727273  C 60.6891025641026 48.2727272727273  61.9511217948718 48.8035037878788  63.0168269230769 49.8650568181818  Z M 69.2007211538461 6.15980113636363  C 69.7335737179487 6.69057765151515  70 7.31912878787878  70 8.04545454545455  L 70 29.5  C 70 30.1704545454545  69.7686298076923 30.7640861742424  69.3058894230769 31.2808948863636  C 68.8431490384615 31.7977035984848  68.2752403846154 32.0980113636364  67.6021634615385 32.1818181818182  L 23.6838942307692 37.2940340909091  C 24.0484775641026 38.9701704545455  24.2307692307692 39.9479166666667  24.2307692307692 40.2272727272727  C 24.2307692307692 40.6742424242424  23.8942307692308 41.5681818181818  23.2211538461538 43  L 61.9230769230769 43  C 62.6522435897436 42.9090909090909  63.2832532051282 43.1744791666667  63.8161057692308 43.7052556818182  C 64.3489583333333 44.2360321969697  64.6153846153846 44.8645833333333  64.6153846153846 45.5909090909091  C 64.6153846153846 46.3172348484848  64.3489583333333 46.9457859848485  63.8161057692308 47.4765625  C 63.2832532051282 48.0073390151515  62.6522435897436 48.2727272727273  61.9230769230769 48  L 18.8461538461538 48  C 18.1169871794872 48.2727272727273  17.4859775641026 48.0073390151515  16.953125 47.4765625  C 16.4202724358974 46.9457859848485  16.1538461538462 46.3172348484848  16.1538461538462 45.5909090909091  C 16.1538461538462 45.2836174242424  16.2660256410256 44.8436316287879  16.4903846153846 44.2709517045455  C 16.7147435897436 43.698271780303  16.9391025641026 43.1954308712121  17.1634615384615 42.7624289772727  C 17.3878205128205 42.3294270833333  17.6893028846154 41.7707149621212  18.0679086538462 41.0862926136364  C 18.4465144230769 40.4018702651515  18.6638621794872 39.9898200757576  18.7199519230769 39.8501420454545  L 11.2740384615385 5.36363636363637  L 2.69230769230769 5.36363636363637  C 1.96314102564103 5.36363636363637  1.33213141025641 5.0982481060606  0.799278846153846 4.56747159090909  C 0.266426282051282 4.03669507575757  0 3.40814393939394  0 2.68181818181818  C 0 1.95549242424242  0.266426282051282 1.32694128787878  0.799278846153846 0.796164772727276  C 1.33213141025641 0.265388257575752  1.96314102564103 0  2.69230769230769 0  L 13.4615384615385 0  C 13.9102564102564 0  14.3098958333333 0.0907907196969657  14.6604567307692 0.27237215909091  C 15.0110176282051 0.453953598484848  15.2844551282051 0.670454545454545  15.4807692307692 0.921875  C 15.6770833333333 1.17329545454546  15.859375 1.51550662878787  16.0276442307692 1.94850852272728  C 16.1959134615385 2.38151041666666  16.308092948718 2.74467329545455  16.3641826923077 3.03799715909091  C 16.4202724358974 3.33132102272728  16.4973958333333 3.74337121212121  16.5955528846154 4.27414772727272  C 16.6937099358974 4.80492424242424  16.7568108974359 5.16808712121212  16.7848557692308 6  L 67.3076923076923 6  C 68.036858974359 5.36363636363637  68.6678685897436 5.62902462121212  69.2007211538461 6.15980113636363  Z " fill-rule="nonzero" fill="#7e3e16" stroke="none" transform="matrix(1 0 0 1 1611 1724 )" />
  </g>
</svg>