<?xml version="1.0" encoding="utf-8"?>
<svg version="1.1" xmlns:xlink="http://www.w3.org/1999/xlink" width="70px" height="59px" xmlns="http://www.w3.org/2000/svg">
  <g transform="matrix(1 0 0 1 -1749 -1724 )">
    <path d="M 23.53515625 28.6375415282392  C 24.51171875 27.6574750830565  25 26.474861572536  25 25.0897009966777  C 25 23.7045404208195  24.51171875 22.521926910299  23.53515625 21.5418604651163  C 22.55859375 20.5617940199336  21.3802083333333 20.0717607973422  20 20.0717607973422  C 18.6197916666667 20.0717607973422  17.44140625 20.5617940199336  16.46484375 21.5418604651163  C 15.48828125 22.521926910299  15 23.7045404208195  15 25.0897009966777  C 15 26.474861572536  15.48828125 27.6574750830565  16.46484375 28.6375415282392  C 17.44140625 29.6176079734219  18.6197916666667 30.1076411960133  20 30.1076411960133  C 21.3802083333333 30.1076411960133  22.55859375 29.6176079734219  23.53515625 28.6375415282392  Z M 38.53515625 28.6375415282392  C 39.51171875 27.6574750830565  40 26.474861572536  40 25.0897009966777  C 40 23.7045404208195  39.51171875 22.521926910299  38.53515625 21.5418604651163  C 37.55859375 20.5617940199336  36.3802083333333 20.0717607973422  35 20.0717607973422  C 33.6197916666667 20.0717607973422  32.44140625 20.5617940199336  31.46484375 21.5418604651163  C 30.48828125 22.521926910299  30 23.7045404208195  30 25.0897009966777  C 30 26.474861572536  30.48828125 27.6574750830565  31.46484375 28.6375415282392  C 32.44140625 29.6176079734219  33.6197916666667 30.1076411960133  35 30.1076411960133  C 36.3802083333333 30.1076411960133  37.55859375 29.6176079734219  38.53515625 28.6375415282392  Z M 53.53515625 28.6375415282392  C 54.51171875 27.6574750830565  55 26.474861572536  55 25.0897009966777  C 55 23.7045404208195  54.51171875 22.521926910299  53.53515625 21.5418604651163  C 52.55859375 20.5617940199336  51.3802083333333 20.0717607973422  50 20.0717607973422  C 48.6197916666667 20.0717607973422  47.44140625 20.5617940199336  46.46484375 21.5418604651163  C 45.48828125 22.521926910299  45 23.7045404208195  45 25.0897009966777  C 45 26.474861572536  45.48828125 27.6574750830565  46.46484375 28.6375415282392  C 47.44140625 29.6176079734219  48.6197916666667 30.1076411960133  50 30.1076411960133  C 51.3802083333333 30.1076411960133  52.55859375 29.6176079734219  53.53515625 28.6375415282392  Z M 65.3125 12.4860465116279  C 68.4375 16.3409745293466  70 20.5421926910299  70 25.0897009966777  C 70 29.6372093023256  68.4375 33.8384274640089  65.3125 37.6933554817276  C 62.1875 41.5482834994463  57.9427083333333 44.593023255814  52.578125 46.8275747508306  C 47.2135416666667 49.0621262458472  41.3541666666667 50.1794019933555  35 50.1794019933555  C 32.1354166666667 50.1794019933555  29.3880208333333 49.9441860465116  26.7578125 49.4737541528239  C 22.2526041666667 53.9951273532669  16.5885416666667 56.9875968992248  9.765625 58.4511627906977  C 8.41145833333333 58.7125138427464  7.29166666666667 58.8823920265781  6.40625 58.9607973421927  C 6.09375 58.9869324473976  5.80729166666667 58.9085271317829  5.546875 58.7255813953488  C 5.28645833333333 58.5426356589147  5.1171875 58.3074197120709  5.0390625 58.0199335548173  C 4.93489583333333 57.6279069767442  5.1953125 57.144407530454  5.8203125 56.5694352159468  C 5.95052083333333 56.4387596899225  6.25651041666667 56.1578073089701  6.73828125 55.7265780730897  C 7.22005208333333 55.2953488372093  7.55208333333333 54.9882613510521  7.734375 54.8053156146179  C 7.91666666666667 54.6223698781838  8.22265625 54.2891472868217  8.65234375 53.8056478405316  C 9.08203125 53.3221483942414  9.39453125 52.9105204872647  9.58984375 52.5707641196013  C 9.78515625 52.231007751938  10.0520833333333 51.7475083056478  10.390625 51.1202657807309  C 10.7291666666667 50.493023255814  10.9895833333333 49.865780730897  11.171875 49.2385382059801  C 11.3541666666667 48.6112956810631  11.54296875 47.859911406423  11.73828125 46.9843853820598  C 11.93359375 46.1088593576966  12.0963541666667 45.1614617940199  12.2265625 44.1421926910299  C 8.42447916666667 41.7900332225914  5.43619791666667 38.9609080841639  3.26171875 35.6548172757475  C 1.08723958333333 32.3487264673311  0 28.8270210409745  0 25.0897009966777  C 0 20.5421926910299  1.5625 16.3409745293466  4.6875 12.4860465116279  C 7.8125 8.63111849390918  12.0572916666667 5.58637873754153  17.421875 3.35182724252492  C 22.7864583333333 1.11727574750831  28.6458333333333 0  35 0  C 41.3541666666667 0  47.2135416666667 1.11727574750831  52.578125 3.35182724252492  C 57.9427083333333 5.58637873754153  62.1875 8.63111849390918  65.3125 12.4860465116279  Z " fill-rule="nonzero" fill="#7e3e16" stroke="none" transform="matrix(1 0 0 1 1749 1724 )" />
  </g>
</svg>