<?xml version="1.0" encoding="utf-8"?>
<svg version="1.1" xmlns:xlink="http://www.w3.org/1999/xlink" width="19px" height="29px" xmlns="http://www.w3.org/2000/svg">
  <g transform="matrix(1 0 0 1 -2369 -1350 )">
    <path d="M 19 14.5  C 19 14.8118279569892  18.8838481338481 15.0816790736146  18.6515444015444 15.3095533498759  L 5.04343629343629 28.6581885856079  C 4.81113256113256 28.8860628618693  4.53603603603604 29  4.21814671814672 29  C 3.9002574002574 29  3.62516087516088 28.8860628618693  3.39285714285714 28.6581885856079  L 0.348455598455598 25.6718362282878  C 0.116151866151866 25.4439619520265  0 25.1741108354012  0 24.8622828784119  C 0 24.5504549214227  0.116151866151866 24.2806038047974  0.348455598455598 24.052729528536  L 10.0868725868726 14.5  L 0.348455598455598 4.94727047146402  C 0.116151866151866 4.71939619520264  0 4.44954507857734  0 4.13771712158809  C 0 3.82588916459884  0.116151866151866 3.55603804797353  0.348455598455598 3.32816377171216  L 3.39285714285714 0.341811414392059  C 3.62516087516088 0.113937138130685  3.9002574002574 0  4.21814671814672 0  C 4.53603603603604 0  4.81113256113256 0.113937138130685  5.04343629343629 0.341811414392059  L 18.6515444015444 13.6904466501241  C 18.8838481338481 13.9183209263854  19 14.1881720430108  19 14.5  Z " fill-rule="nonzero" fill="#828282" stroke="none" transform="matrix(1 0 0 1 2369 1350 )" />
  </g>
</svg>