<?xml version="1.0" encoding="utf-8"?>
<svg version="1.1" xmlns:xlink="http://www.w3.org/1999/xlink" width="26px" height="17px" xmlns="http://www.w3.org/2000/svg">
  <g transform="matrix(1 0 0 1 -2365 -1254 )">
    <path d="M 26 3.76956521739131  C 26 4.0597423510467  25.8978494623656 4.30885668276972  25.6935483870968 4.51690821256039  L 13.7258064516129 16.687922705314  C 13.5215053763441 16.8959742351047  13.2795698924731 17  13 17  C 12.7204301075269 17  12.4784946236559 16.8959742351047  12.2741935483871 16.687922705314  L 0.306451612903226 4.51690821256039  C 0.102150537634409 4.30885668276972  0 4.0597423510467  0 3.76956521739131  C 0 3.47938808373591  0.102150537634409 3.23027375201288  0.306451612903226 3.02222222222222  L 2.98387096774194 0.31207729468599  C 3.18817204301075 0.104025764895329  3.43010752688172 0  3.70967741935484 0  C 3.98924731182796 0  4.23118279569893 0.104025764895329  4.43548387096774 0.31207729468599  L 13 9.03381642512077  L 21.5645161290323 0.31207729468599  C 21.7688172043011 0.104025764895329  22.010752688172 0  22.2903225806452 0  C 22.5698924731183 0  22.8118279569892 0.104025764895329  23.0161290322581 0.31207729468599  L 25.6935483870968 3.02222222222222  C 25.8978494623656 3.23027375201288  26 3.47938808373591  26 3.76956521739131  Z " fill-rule="nonzero" fill="#828282" stroke="none" transform="matrix(1 0 0 1 2365 1254 )" />
  </g>
</svg>