<?xml version="1.0" encoding="utf-8"?>
<svg version="1.1" xmlns:xlink="http://www.w3.org/1999/xlink" width="16px" height="5px" xmlns="http://www.w3.org/2000/svg">
  <g transform="matrix(1 0 0 1 -2253 -1299 )">
    <path d="M 15.6818181818182 0.364583333333333  C 15.8939393939394 0.607638888888887  16 0.902777777777777  16 1.25  L 16 3.75  C 16 4.09722222222222  15.8939393939394 4.39236111111111  15.6818181818182 4.63541666666667  C 15.469696969697 4.87847222222222  15.2121212121212 5  14.9090909090909 5  L 1.09090909090909 5  C 0.787878787878788 5  0.53030303030303 4.87847222222222  0.318181818181818 4.63541666666667  C 0.106060606060606 4.39236111111111  0 4.09722222222222  0 3.75  L 0 1.25  C 0 0.902777777777777  0.106060606060606 0.607638888888887  0.318181818181818 0.364583333333333  C 0.53030303030303 0.121527777777777  0.787878787878788 0  1.09090909090909 0  L 14.9090909090909 0  C 15.2121212121212 0  15.469696969697 0.121527777777777  15.6818181818182 0.364583333333333  Z " fill-rule="nonzero" fill="#e86830" stroke="none" transform="matrix(1 0 0 1 2253 1299 )" />
  </g>
</svg>