<?xml version="1.0" encoding="utf-8"?>
<svg version="1.1" xmlns:xlink="http://www.w3.org/1999/xlink" width="41px" height="27px" xmlns="http://www.w3.org/2000/svg">
  <g transform="matrix(1 0 0 1 -2391 -1201 )">
    <path d="M 41 5.98695652173913  C 41 6.44782608695652  40.8389164598842 6.84347826086956  40.5167493796526 7.17391304347826  L 21.644540942928 26.504347826087  C 21.3223738626964 26.8347826086957  20.9408602150538 27  20.5 27  C 20.0591397849462 27  19.6776261373036 26.8347826086957  19.355459057072 26.504347826087  L 0.483250620347395 7.17391304347826  C 0.161083540115798 6.84347826086956  0 6.44782608695652  0 5.98695652173913  C 0 5.52608695652174  0.161083540115798 5.13043478260869  0.483250620347395 4.8  L 4.70533498759305 0.495652173913043  C 5.02750206782465 0.165217391304347  5.40901571546733 0  5.84987593052109 0  C 6.29073614557486 0  6.67224979321754 0.165217391304347  6.99441687344913 0.495652173913043  L 20.5 14.3478260869565  L 34.0055831265509 0.495652173913043  C 34.3277502067825 0.165217391304347  34.7092638544251 0  35.1501240694789 0  C 35.5909842845327 0  35.9724979321754 0.165217391304347  36.2946650124069 0.495652173913043  L 40.5167493796526 4.8  C 40.8389164598842 5.13043478260869  41 5.52608695652174  41 5.98695652173913  Z " fill-rule="nonzero" fill="#d15200" stroke="none" transform="matrix(1 0 0 1 2391 1201 )" />
  </g>
</svg>