<?xml version="1.0" encoding="utf-8"?>
<svg version="1.1" xmlns:xlink="http://www.w3.org/1999/xlink" width="33px" height="29px" xmlns="http://www.w3.org/2000/svg">
  <g transform="matrix(1 0 0 1 -2641 -1749 )">
    <path d="M 13.4635416666667 16.9166666666667  L 18.3142361111111 16.9166666666667  L 19.5364583333333 12.0833333333333  L 14.6857638888889 12.0833333333333  L 13.4635416666667 16.9166666666667  Z M 32.8663194444444 6.87239583333333  C 32.9809027777778 7.0234375  33.0190972222222 7.19965277777778  32.9809027777778 7.40104166666667  L 31.9114583333333 11.6302083333333  C 31.822337962963 11.9322916666667  31.625 12.0833333333333  31.3194444444444 12.0833333333333  L 25.0746527777778 12.0833333333333  L 23.8524305555556 16.9166666666667  L 29.7916666666667 16.9166666666667  C 29.9826388888889 16.9166666666667  30.1417824074074 16.9921875  30.2690972222222 17.1432291666667  C 30.396412037037 17.3194444444444  30.4346064814815 17.4956597222222  30.3836805555556 17.671875  L 29.3142361111111 21.9010416666667  C 29.2505787037037 22.203125  29.0532407407407 22.3541666666667  28.7222222222222 22.3541666666667  L 22.4774305555556 22.3541666666667  L 20.9305555555556 28.546875  C 20.8414351851852 28.8489583333333  20.6440972222222 29  20.3385416666667 29  L 16.0607638888889 29  C 15.8570601851852 29  15.6915509259259 28.9244791666667  15.5642361111111 28.7734375  C 15.4496527777778 28.6223958333333  15.4114583333333 28.4461805555556  15.4496527777778 28.2447916666667  L 16.9392361111111 22.3541666666667  L 12.0885416666667 22.3541666666667  L 10.5416666666667 28.546875  C 10.4525462962963 28.8489583333333  10.2552083333333 29  9.94965277777778 29  L 5.65277777777778 29  C 5.46180555555556 29  5.30266203703704 28.9244791666667  5.17534722222222 28.7734375  C 5.06076388888889 28.6223958333333  5.02256944444444 28.4461805555556  5.06076388888889 28.2447916666667  L 6.55034722222222 22.3541666666667  L 0.611111111111111 22.3541666666667  C 0.420138888888889 22.3541666666667  0.26099537037037 22.2786458333333  0.133680555555556 22.1276041666667  C 0.0190972222222222 21.9765625  -0.0190972222222222 21.8003472222222  0.0190972222222222 21.5989583333333  L 1.08854166666667 17.3697916666667  C 1.17766203703704 17.0677083333333  1.375 16.9166666666667  1.68055555555556 16.9166666666667  L 7.92534722222222 16.9166666666667  L 9.14756944444444 12.0833333333333  L 3.20833333333333 12.0833333333333  C 3.01736111111111 12.0833333333333  2.85821759259259 12.0078125  2.73090277777778 11.8567708333333  C 2.60358796296296 11.6805555555556  2.56539351851852 11.5043402777778  2.61631944444444 11.328125  L 3.68576388888889 7.09895833333333  C 3.7494212962963 6.796875  3.94675925925926 6.64583333333333  4.27777777777778 6.64583333333333  L 10.5225694444444 6.64583333333333  L 12.0694444444444 0.453125  C 12.1585648148148 0.151041666666668  12.3622685185185 0  12.6805555555556 0  L 16.9583333333333 0  C 17.1493055555556 0  17.3084490740741 0.0755208333333323  17.4357638888889 0.2265625  C 17.5503472222222 0.377604166666668  17.5885416666667 0.553819444444444  17.5503472222222 0.755208333333332  L 16.0607638888889 6.64583333333333  L 20.9114583333333 6.64583333333333  L 22.4583333333333 0.453125  C 22.5474537037037 0.151041666666668  22.7511574074074 0  23.0694444444444 0  L 27.3472222222222 0  C 27.5381944444444 0  27.697337962963 0.0755208333333323  27.8246527777778 0.2265625  C 27.9392361111111 0.377604166666668  27.9774305555556 0.553819444444444  27.9392361111111 0.755208333333332  L 26.4496527777778 6.64583333333333  L 32.3888888888889 6.64583333333333  C 32.5798611111111 6.64583333333333  32.7390046296296 6.72135416666667  32.8663194444444 6.87239583333333  Z " fill-rule="nonzero" fill="#724907" stroke="none" transform="matrix(1 0 0 1 2641 1749 )" />
  </g>
</svg>