<?xml version="1.0" encoding="utf-8"?>
<svg version="1.1" xmlns:xlink="http://www.w3.org/1999/xlink" width="27px" height="43px" xmlns="http://www.w3.org/2000/svg">
  <g transform="matrix(1 0 0 1 -3314 -1745 )">
    <path d="M 27 21.5  C 27 21.9623655913978  26.8349420849421 22.3624896608768  26.5048262548263 22.7003722084367  L 7.16698841698842 42.4931761786601  C 6.83687258687259 42.83105872622  6.44594594594595 43  5.99420849420849 43  C 5.54247104247104 43  5.1515444015444 42.83105872622  4.82142857142857 42.4931761786601  L 0.495173745173745 38.0651364764268  C 0.165057915057915 37.7272539288668  0 37.3271298593879  0 36.8647642679901  C 0 36.4023986765922  0.165057915057915 36.0022746071133  0.495173745173745 35.6643920595534  L 14.3339768339768 21.5  L 0.495173745173745 7.33560794044665  C 0.165057915057915 6.99772539288668  0 6.59760132340777  0 6.13523573200992  C 0 5.67287014061207  0.165057915057915 5.27274607113316  0.495173745173745 4.9348635235732  L 4.82142857142857 0.506823821339949  C 5.1515444015444 0.168941273779981  5.54247104247104 0  5.99420849420849 0  C 6.44594594594595 0  6.83687258687259 0.168941273779981  7.16698841698842 0.506823821339949  L 26.5048262548263 20.2996277915633  C 26.8349420849421 20.6375103391232  27 21.0376344086022  27 21.5  Z " fill-rule="nonzero" fill="#aaaaaa" stroke="none" transform="matrix(1 0 0 1 3314 1745 )" />
  </g>
</svg>