<?xml version="1.0" encoding="utf-8"?>
<svg version="1.1" xmlns:xlink="http://www.w3.org/1999/xlink" width="63px" height="48px" xmlns="http://www.w3.org/2000/svg">
  <g transform="matrix(1 0 0 1 -2703 -945 )">
    <path d="M 54.5818965517241 17.7272727272727  C 55.8491379310345 16.4545454545454  56.4827586206897 14.9090909090909  56.4827586206897 13.0909090909091  C 56.4827586206897 11.2727272727273  55.8491379310345 9.72727272727273  54.5818965517241 8.45454545454546  C 53.3146551724138 7.18181818181818  51.7758620689655 6.54545454545455  49.9655172413793 6.54545454545455  L 47 6.54545454545455  L 47 19.6363636363636  L 49.9655172413793 19.6363636363636  C 51.7758620689655 19.6363636363636  53.3146551724138 19  54.5818965517241 17.7272727272727  Z M 2.5457974137931 45.4431818181818  C 0.848599137931034 43.7386363636364  0 41.6818181818182  0 39  L 60.8275862068966 39  C 60.8275862068966 41.6818181818182  59.9789870689655 43.7386363636364  58.2817887931034 45.4431818181818  C 56.5845905172414 47.1477272727273  54.5366379310345 48  52.1379310344828 48  L 8.68965517241379 48  C 6.29094827586207 48  4.24299568965517 47.1477272727273  2.5457974137931 45.4431818181818  Z M 59.1813038793103 3.83522727272728  C 61.7271012931034 6.39204545454546  63 9.47727272727272  63 13.0909090909091  C 63 16.7045454545455  61.7271012931034 19.7897727272727  59.1813038793103 22.3465909090909  C 56.6355064655172 24.9034090909091  53.5635775862069 26.1818181818182  49.9655172413793 26.1818181818182  L 47.7931034482759 26.1818181818182  L 47.7931034482759 27.2727272727273  C 47.7931034482759 29.3636363636364  47.0463362068966 31.1590909090909  45.5528017241379 32.6590909090909  C 44.0592672413793 34.1590909090909  42.2715517241379 34.9090909090909  40.1896551724138 35  L 16.2931034482759 35  C 14.2112068965517 34.9090909090909  12.4234913793103 34.1590909090909  10.9299568965517 32.6590909090909  C 9.4364224137931 31.1590909090909  8.68965517241379 29.3636363636364  9 27.2727272727273  L 9 2.18181818181818  C 8.68965517241379 1.59090909090909  8.90463362068966 1.07954545454545  9.33459051724138 0.647727272727275  C 9.7645474137931 0.215909090909086  10.2737068965517 0  10.8620689655172 0  L 49.9655172413793 0  C 53.5635775862069 0  56.6355064655172 1.27840909090909  59.1813038793103 3.83522727272728  Z " fill-rule="nonzero" fill="#c5c5c5" stroke="none" transform="matrix(1 0 0 1 2703 945 )" />
  </g>
</svg>