<?xml version="1.0" encoding="utf-8"?>
<svg version="1.1" xmlns:xlink="http://www.w3.org/1999/xlink" width="27px" height="35px" xmlns="http://www.w3.org/2000/svg">
  <g transform="matrix(1 0 0 1 -3374 -927 )">
    <path d="M 27 17.5  C 27 17.8763440860215  26.8349420849421 18.2020264681555  26.5048262548263 18.477047146402  L 7.16698841698842 34.5874689826303  C 6.83687258687259 34.8624896608768  6.44594594594595 35  5.99420849420849 35  C 5.54247104247104 35  5.1515444015444 34.8624896608768  4.82142857142857 34.5874689826303  L 0.495173745173745 30.9832506203474  C 0.165057915057915 30.7082299421009  0 30.3825475599669  0 30.0062034739454  C 0 29.6298593879239  0.165057915057915 29.3041770057899  0.495173745173745 29.0291563275434  L 14.3339768339768 17.5  L 0.495173745173745 5.97084367245658  C 0.165057915057915 5.69582299421009  0 5.37014061207609  0 4.99379652605459  C 0 4.61745244003308  0.165057915057915 4.29177005789909  0.495173745173745 4.01674937965261  L 4.82142857142857 0.412531017369726  C 5.1515444015444 0.137510339123241  5.54247104247104 0  5.99420849420849 0  C 6.44594594594595 0  6.83687258687259 0.137510339123241  7.16698841698842 0.412531017369726  L 26.5048262548263 16.522952853598  C 26.8349420849421 16.7979735318445  27 17.1236559139785  27 17.5  Z " fill-rule="nonzero" fill="#d2d2d2" stroke="none" transform="matrix(1 0 0 1 3374 927 )" />
  </g>
</svg>