<?xml version="1.0" encoding="utf-8"?>
<svg version="1.1" xmlns:xlink="http://www.w3.org/1999/xlink" width="22px" height="33px" xmlns="http://www.w3.org/2000/svg">
  <g transform="matrix(1 0 0 1 -3592 -1587 )">
    <path d="M 14.888671875 14.888671875  C 15.962890625 13.814453125  16.5 12.5182291666667  16.5 11  C 16.5 9.48177083333333  15.962890625 8.185546875  14.888671875 7.111328125  C 13.814453125 6.037109375  12.5182291666667 5.5  11 5.5  C 9.48177083333333 5.5  8.185546875 6.037109375  7.111328125 7.111328125  C 6.037109375 8.185546875  5.5 9.48177083333333  5.5 11  C 5.5 12.5182291666667  6.037109375 13.814453125  7.111328125 14.888671875  C 8.185546875 15.962890625  9.48177083333333 16.5  11 16.5  C 12.5182291666667 16.5  13.814453125 15.962890625  14.888671875 14.888671875  Z M 18.77734375 3.22265625  C 20.92578125 5.37109375  22 7.96354166666666  22 11  C 22 12.5611979166667  21.763671875 13.8430989583333  21.291015625 14.845703125  L 13.470703125 31.474609375  C 13.2415364583333 31.947265625  12.9013671875 32.3196614583333  12.4501953125 32.591796875  C 11.9990234375 32.8639322916667  11.515625 33  11 33  C 10.484375 33  10.0009765625 32.8639322916667  9.5498046875 32.591796875  C 9.0986328125 32.3196614583333  8.765625 31.947265625  8.55078125 31.474609375  L 0.708984375 14.845703125  C 0.236328125 13.8430989583333  0 12.5611979166667  0 11  C 0 7.96354166666666  1.07421875 5.37109375  3.22265625 3.22265625  C 5.37109375 1.07421875  7.96354166666667 0  11 0  C 14.0364583333333 0  16.62890625 1.07421875  18.77734375 3.22265625  Z " fill-rule="nonzero" fill="#724907" stroke="none" transform="matrix(1 0 0 1 3592 1587 )" />
  </g>
</svg>