<?xml version="1.0" encoding="utf-8"?>
<svg version="1.1" xmlns:xlink="http://www.w3.org/1999/xlink" width="34px" height="40px" xmlns="http://www.w3.org/2000/svg">
  <g transform="matrix(1 0 0 1 -4611 -1050 )">
    <path d="M 33.77421875 28.9192708333333  C 33.9247395833333 30.2300347222222  34 31.6232638888889  34 33.0989583333333  C 34 34.9913194444444  33.4466145833333 36.6145833333333  32.33984375 37.96875  C 31.2330729166667 39.3229166666667  29.9005208333333 40  28.3421875 40  L 5.6578125 40  C 4.09947916666667 40  2.76692708333333 39.3229166666667  1.66015625 37.96875  C 0.553385416666667 36.6145833333333  0 34.9913194444444  0 33.0989583333333  C 0 31.6232638888889  0.0752604166666668 30.2300347222222  0.22578125 28.9192708333333  C 0.376302083333334 27.6085069444444  0.655208333333334 26.2890625  1.0625 24.9609375  C 1.46979166666667 23.6328125  1.98776041666667 22.4956597222222  2.61640625 21.5494791666667  C 3.24505208333333 20.6032986111111  4.07734375 19.8307291666667  5.11328125 19.2317708333333  C 6.14921875 18.6328125  7.34010416666667 18.3333333333333  8.6859375 18.3333333333333  C 11.0057291666667 20.5555555555556  13.7770833333333 21.6666666666667  17 21.6666666666667  C 20.2229166666667 21.6666666666667  22.9942708333333 20.5555555555556  25.3140625 18.3333333333333  C 26.6598958333333 18.3333333333333  27.85078125 18.6328125  28.88671875 19.2317708333333  C 29.92265625 19.8307291666667  30.7549479166667 20.6032986111111  31.38359375 21.5494791666667  C 32.0122395833333 22.4956597222222  32.5302083333333 23.6328125  32.9375 24.9609375  C 33.3447916666667 26.2890625  33.6236979166667 27.6085069444444  33.77421875 28.9192708333333  Z M 24.21171875 2.9296875  C 26.20390625 4.8828125  27.2 7.23958333333333  27.2 10  C 27.2 12.7604166666667  26.20390625 15.1171875  24.21171875 17.0703125  C 22.21953125 19.0234375  19.815625 20  17 20  C 14.184375 20  11.78046875 19.0234375  9.78828125 17.0703125  C 7.79609375 15.1171875  6.8 12.7604166666667  6.8 10  C 6.8 7.23958333333333  7.79609375 4.8828125  9.78828125 2.9296875  C 11.78046875 0.9765625  14.184375 0  17 0  C 19.815625 0  22.21953125 0.9765625  24.21171875 2.9296875  Z " fill-rule="nonzero" fill="#5d2f00" stroke="none" transform="matrix(1 0 0 1 4611 1050 )" />
  </g>
</svg>