<?xml version="1.0" encoding="utf-8"?>
<svg version="1.1" xmlns:xlink="http://www.w3.org/1999/xlink" width="36px" height="26px" xmlns="http://www.w3.org/2000/svg">
  <g transform="matrix(1 0 0 1 -1770 -1799 )">
    <path d="M 33.2467260345731 15.5482954545455  C 33.4730225248821 15.2774621212121  33.5861707700367 15.0374053030303  33.5861707700367 14.828125  C 33.5861707700367 14.3972537878788  33.2530120481928 14.1818181818182  32.586694604505 14  L 12.0691461498167 14  C 11.566265060241 14.1818181818182  11.0288108957569 14.3141571969697  10.4567836563646 14.5788352272727  C 9.88475641697224 14.8435132575758  9.43530644316396 15.1666666666667  9.10843373493976 15.5482954545455  L 3.56416972236773 22.2514204545455  C 3.33787323205867 22.546875  3.22472498690414 22.7930871212121  3.22472498690414 22.9900568181818  C 3.22472498690414 23.420928030303  3.55788370874804 23.6363636363636  4.22420115243583 23.6363636363636  L 24.7417496071241 23.6363636363636  C 25.2446306966998 23.6363636363636  25.7852278679937 23.500946969697  26.3635411210058 23.2301136363636  C 26.9418543740178 22.9592803030303  27.3881613410162 22.6330492424242  27.702462022001 22.2514204545455  L 33.2467260345731 15.5482954545455  Z M 9.42902042954426 12.4552556818182  C 10.3342063907805 12.0305397727273  11.214248297538 11.8181818181818  12.0691461498167 12  L 26.5521215295966 12  L 26.5521215295966 8.86363636363637  C 26.5521215295966 8.37121212121212  26.3761131482452 7.95265151515151  26.0240963855422 7.60795454545455  C 25.6720796228392 7.26325757575757  25.2446306966998 7.09090909090909  24.7417496071241 7  L 13.8795180722892 7  C 13.3766369827135 7.09090909090909  12.9491880565741 6.9185606060606  12.5971712938711 6.57386363636364  C 12.2451545311682 6.22916666666666  12.0691461498167 5.81060606060606  12.0691461498167 5.31818181818182  L 12.0691461498167 4.13636363636364  C 12.0691461498167 3.64393939393939  11.8931377684652 3.22537878787878  11.5411210057622 2.88068181818182  C 11.1891042430592 2.53598484848485  10.7616553169199 2.36363636363636  10.2587742273442 2.36363636363636  L 4.22420115243583 2.36363636363636  C 3.72132006286014 2.36363636363636  3.2938711367208 2.53598484848485  2.94185437401781 2.88068181818182  C 2.58983761131482 3.22537878787878  2.41382922996333 3.64393939393939  3 4.13636363636364  L 3 19.8877840909091  L 7.24148768989 14.0710227272727  C 7.79465688842326 13.4185606060606  8.52383446830802 12.8799715909091  9.42902042954426 12.4552556818182  Z M 35.7171293871137 13.5724431818182  C 35.9057097957046 13.9663825757576  36 14.3849431818182  36 14.828125  C 36 15.5913825757576  35.710843373494 16.3300189393939  35.1325301204819 17.0440340909091  L 29.5694080670508 23.7471590909091  C 29.0288108957569 24.3996212121212  28.2996333158722 24.9382102272727  27.3818753273965 25.3629261363636  C 26.4641173389209 25.7876420454545  25.5840754321634 26  24.7417496071241 26  L 4.22420115243583 26  C 3.06757464641173 26  2.07438449449974 25.59375  1.24463069669984 24.78125  C 0.414876898899948 23.96875  0 22.9962121212121  0 21.8636363636364  L 0 4.13636363636364  C 0 3.00378787878787  0.414876898899948 2.03125  1.24463069669984 1.21875  C 2.07438449449974 0.40625  3.06757464641173 0  4.22420115243583 0  L 10.2587742273442 0  C 11.4154007333683 0  12.4085908852803 0.40625  13.2383446830801 1.21875  C 14.06809848088 2.03125  14.48297537978 3.00378787878787  14.48297537978 4.13636363636364  L 14.48297537978 5  L 24.7417496071241 5  C 25.8983761131482 4.72727272727273  26.8915662650602 5.13352272727273  27.7213200628601 5.94602272727273  C 28.55107386066 6.75852272727273  28.96595075956 7.7310606060606  28.96595075956 8.86363636363637  L 28.96595075956 11.8181818181818  L 32.586694604505 11.8181818181818  C 33.2655840754322 11.8181818181818  33.8878994237821 11.9689867424242  34.4536406495547 12.2705965909091  C 35.0193818753274 12.5722064393939  35.440544787847 13.0061553030303  35.7171293871137 13.5724431818182  Z " fill-rule="nonzero" fill="#8a8a8a" stroke="none" transform="matrix(1 0 0 1 1770 1799 )" />
  </g>
</svg>