<?xml version="1.0" encoding="utf-8"?>
<svg version="1.1" xmlns:xlink="http://www.w3.org/1999/xlink" width="55px" height="43px" xmlns="http://www.w3.org/2000/svg">
  <g transform="matrix(1 0 0 1 -4595 -876 )">
    <path d="M 40.3292410714286 7.78211497515969  C 42.2526041666667 10.1828720132482  43.2142857142857 12.7972557369293  43.2142857142857 15.625266146203  C 43.2142857142857 18.4532765554767  42.2526041666667 21.0676602791578  40.3292410714286 23.4684173172463  C 38.4058779761905 25.8691743553347  35.7817150297619 27.7663827773835  32.4567522321429 29.1600425833925  C 29.1317894345238 30.5537023894015  25.5152529761905 31.250532292406  21.6071428571429 31.250532292406  C 19.8474702380952 31.250532292406  18.046875 31.087769103383  16.2053571428571 30.7622427253371  C 13.6681547619048 32.5526378045895  10.8240327380952 33.8547433167731  7.67299107142857 34.6685592618879  C 6.93638392857143 34.8516678495387  6.05654761904762 35.0144310385616  5.03348214285714 35.1568488289567  L 4.94140625 35.1568488289567  C 4.7163318452381 35.1568488289567  4.50660342261905 35.0754672344452  4.31222098214286 34.9127040454223  C 4.11783854166667 34.7499408563993  4.00018601190476 34.5363141708067  3.95926339285714 34.2718239886444  C 3.93880208333333 34.2107877927608  3.92857142857143 34.1446652472202  3.92857142857143 34.0734563520227  C 3.92857142857143 34.0022474568252  3.93368675595238 33.9361249112846  3.94391741071429 33.875088715401  C 3.95414806547619 33.8140525195174  3.974609375 33.7530163236338  4.00530133928571 33.6919801277502  L 4.08203125 33.5393896380412  C 4.08203125 33.5393896380412  4.11783854166667 33.4834397918145  4.189453125 33.3715400993612  C 4.26106770833333 33.259640406908  4.30199032738095 33.2087769103383  4.31222098214286 33.2189496096522  C 4.32245163690476 33.2291223089662  4.36848958333333 33.1782588123965  4.45033482142857 33.0663591199432  C 4.53218005952381 32.9544594274899  4.57310267857143 32.9086822805772  4.57310267857143 32.9290276792051  C 4.67540922619048 32.8069552874379  4.91071428571429 32.5526378045895  5.27901785714286 32.16607523066  C 5.64732142857143 31.7795126567305  5.91331845238095 31.4794180269695  6.07700892857143 31.2657913413769  C 6.24069940476191 31.0521646557842  6.47088913690476 30.7571563756801  6.767578125 30.3807665010646  C 7.06426711309524 30.004376626449  7.32003348214286 29.6127277028625  7.53487723214286 29.2058197303052  C 7.74972098214286 28.7989117577478  7.95944940476191 28.3513129879347  8.1640625 27.8630234208659  C 5.62686011904762 26.3981547196593  3.63188244047619 24.597586941093  2.17912946428571 22.4613200851668  C 0.726376488095238 20.3250532292406  0 18.0463685829193  0 15.625266146203  C 0 12.7972557369293  0.961681547619048 10.1828720132482  2.88504464285714 7.78211497515969  C 4.80840773809524 5.38135793707121  7.43257068452381 3.48414951502247  10.7575334821429 2.09048970901349  C 14.0824962797619 0.696829903004494  17.6990327380952 0  21.6071428571429 0  C 25.5152529761905 0  29.1317894345238 0.696829903004494  32.4567522321429 2.09048970901349  C 35.7817150297619 3.48414951502247  38.4058779761905 5.38135793707121  40.3292410714286 7.78211497515969  Z M 52.6981026785714 16.4187366926899  C 54.2327008928571 18.5956943458718  55 20.9354151880767  55 23.4378992193045  C 55 25.8793470546487  54.2736235119048 28.1631180506269  52.8208705357143 30.2892122072392  C 51.3681175595238 32.4153063638514  49.3731398809524 34.2107877927608  46.8359375 35.6756564939674  C 47.0405505952381 36.1639460610362  47.2502790178571 36.6115448308493  47.4651227678571 37.0184528034067  C 47.6799665178572 37.425360775964  47.9357328869048 37.8170096995505  48.232421875 38.1933995741661  C 48.5291108630952 38.5697894487816  48.7593005952381 38.8647977288857  48.9229910714286 39.0784244144783  C 49.0866815476191 39.292051100071  49.3526785714286 39.592145729832  49.7209821428571 39.9787083037615  C 50.0892857142857 40.365270877691  50.3245907738095 40.6195883605394  50.4268973214286 40.7416607523066  C 50.4473586309524 40.7620061509345  50.48828125 40.8077832978472  50.5496651785714 40.8789921930447  C 50.6110491071429 40.9502010882423  50.6570870535714 41.0010645848119  50.6877790178571 41.0315826827537  C 50.7184709821429 41.0621007806955  50.7593936011905 41.1129642772652  50.810546875 41.1841731724627  C 50.8617001488095 41.2553820676603  50.8975074404762 41.3113319138869  50.91796875 41.3520227111427  L 50.9946986607143 41.5046132008517  C 50.9946986607143 41.5046132008517  51.0151599702381 41.5656493967353  51.0560825892857 41.6877217885025  C 51.0970052083333 41.8097941802697  51.1021205357143 41.8759167258103  51.0714285714286 41.8860894251242  C 51.0407366071429 41.8962621244381  51.030505952381 41.9623846699787  51.0407366071429 42.0844570617459  C 50.9793526785714 42.3692926425361  50.8463541666667 42.5930920274426  50.6417410714286 42.7558552164656  C 50.4371279761905 42.9186184054885  50.2120535714286 42.9898273006861  49.9665178571429 42.9694819020582  C 48.9434523809524 42.8270641116631  48.0636160714286 42.6643009226402  47.3270089285714 42.4811923349894  C 44.1759672619048 41.6673763898746  41.3318452380952 40.365270877691  38.7946428571429 38.5748757984386  C 36.953125 38.9004021764845  35.1525297619048 39.0631653655075  33.3928571428571 39.0631653655075  C 27.8478422619048 39.0631653655075  23.0189732142857 37.7203690560681  18.90625 35.0347764371895  C 20.093005952381 35.116158031701  20.9933035714286 35.1568488289567  21.6071428571429 35.1568488289567  C 24.9014136904762 35.1568488289567  28.0626860119048 34.6990773598297  31.0909598214286 33.7835344215756  C 34.1192336309524 32.8679914833215  36.8201264880952 31.555713271824  39.1936383928571 29.846699787083  C 41.7513020833333 27.9749231133191  43.7155877976191 25.8183108587651  45.0864955357143 23.3768630234209  C 46.4574032738095 20.9354151880767  47.1428571428571 18.3515495623374  47.1428571428571 15.625266146203  C 47.1428571428571 14.0586704518571  46.9075520833333 12.5124201561391  46.4369419642857 10.986515259049  C 49.0764508928571 12.4310385616276  51.1635044642857 14.2417790395079  52.6981026785714 16.4187366926899  Z " fill-rule="nonzero" fill="#bfbfbf" stroke="none" transform="matrix(1 0 0 1 4595 876 )" />
  </g>
</svg>