<?xml version="1.0" encoding="utf-8"?>
<svg version="1.1" xmlns:xlink="http://www.w3.org/1999/xlink" width="25px" height="33px" xmlns="http://www.w3.org/2000/svg">
  <g transform="matrix(1 0 0 1 -5287 -851 )">
    <path d="M 25 16.5  C 25 16.8548387096774  24.8471685971686 17.1619106699752  24.5415057915058 17.4212158808933  L 6.63610038610039 32.6110421836228  C 6.33043758043758 32.8703473945409  5.96846846846847 33  5.55019305019305 33  C 5.13191763191763 33  4.76994851994852 32.8703473945409  4.46428571428571 32.6110421836228  L 0.458494208494209 29.2127791563275  C 0.152831402831403 28.9534739454094  0 28.6464019851117  0 28.2915632754342  C 0 27.9367245657568  0.152831402831403 27.6296526054591  0.458494208494209 27.3703473945409  L 13.2722007722008 16.5  L 0.458494208494209 5.62965260545906  C 0.152831402831403 5.37034739454094  0 5.06327543424317  0 4.70843672456576  C 0 4.35359801488833  0.152831402831403 4.04652605459057  0.458494208494209 3.78722084367246  L 4.46428571428571 0.38895781637717  C 4.76994851994852 0.129652605459056  5.13191763191763 0  5.55019305019305 0  C 5.96846846846847 0  6.33043758043758 0.129652605459056  6.63610038610039 0.38895781637717  L 24.5415057915058 15.5787841191067  C 24.8471685971686 15.8380893300248  25 16.1451612903226  25 16.5  Z " fill-rule="nonzero" fill="#d2d2d2" stroke="none" transform="matrix(1 0 0 1 5287 851 )" />
  </g>
</svg>